{
  "asset": {
    "generator": "glTF-Transform v4.2.1",
    "version": "2.0"
  },
  "accessors": [
    {
      "type": "VEC3",
      "componentType": 5126,
      "count": 432,
      "max": [
        0.9712533354759216,
        1.246639609336853,
        0.14187096059322357
      ],
      "min": [
        0.08884596824645996,
        0.962897777557373,
        -0.14187081158161163
      ],
      "bufferView": 0,
      "byteOffset": 0
    },
    {
      "type": "VEC3",
      "componentType": 5126,
      "count": 432,
      "bufferView": 0,
      "byteOffset": 12
    },
    {
      "type": "VEC2",
      "componentType": 5126,
      "count": 432,
      "bufferView": 0,
      "byteOffset": 24
    },
    {
      "type": "VEC4",
      "componentType": 5121,
      "count": 432,
      "bufferView": 0,
      "byteOffset": 32
    },
    {
      "type": "VEC4",
      "componentType": 5126,
      "count": 432,
      "bufferView": 0,
      "byteOffset": 36
    },
    {
      "type": "SCALAR",
      "componentType": 5123,
      "count": 1908,
      "bufferView": 1,
      "byteOffset": 0
    },
    {
      "type": "SCALAR",
      "componentType": 5123,
      "count": 1572,
      "bufferView": 1,
      "byteOffset": 3816
    },
    {
      "type": "SCALAR",
      "componentType": 5123,
      "count": 4386,
      "bufferView": 1,
      "byteOffset": 6960
    },
    {
      "type": "SCALAR",
      "componentType": 5123,
      "count": 1029,
      "bufferView": 1,
      "byteOffset": 15732
    },
    {
      "type": "SCALAR",
      "componentType": 5123,
      "count": 6648,
      "bufferView": 1,
      "byteOffset": 17792
    },
    {
      "type": "SCALAR",
      "componentType": 5123,
      "count": 1794,
      "bufferView": 1,
      "byteOffset": 31088
    },
    {
      "type": "SCALAR",
      "componentType": 5123,
      "count": 1794,
      "bufferView": 1,
      "byteOffset": 34676
    },
    {
      "type": "VEC3",
      "componentType": 5126,
      "count": 320,
      "max": [
        -0.08884596824645996,
        1.246639609336853,
        0.14187096059322357
      ],
      "min": [
        -0.9712533354759216,
        0.962897777557373,
        -0.14187081158161163
      ],
      "bufferView": 2,
      "byteOffset": 0
    },
    {
      "type": "VEC3",
      "componentType": 5126,
      "count": 320,
      "bufferView": 2,
      "byteOffset": 12
    },
    {
      "type": "VEC2",
      "componentType": 5126,
      "count": 320,
      "bufferView": 2,
      "byteOffset": 24
    },
    {
      "type": "VEC4",
      "componentType": 5121,
      "count": 320,
      "bufferView": 2,
      "byteOffset": 32
    },
    {
      "type": "VEC4",
      "componentType": 5126,
      "count": 320,
      "bufferView": 2,
      "byteOffset": 36
    },
    {
      "type": "VEC3",
      "componentType": 5126,
      "count": 1674,
      "max": [
        0.3847578167915344,
        1.290103793144226,
        0.3197774887084961
      ],
      "min": [
        -0.3847578167915344,
        0.3432740271091461,
        -0.32562559843063354
      ],
      "bufferView": 3,
      "byteOffset": 0
    },
    {
      "type": "VEC3",
      "componentType": 5126,
      "count": 1674,
      "bufferView": 3,
      "byteOffset": 12
    },
    {
      "type": "VEC2",
      "componentType": 5126,
      "count": 1674,
      "bufferView": 3,
      "byteOffset": 24
    },
    {
      "type": "VEC4",
      "componentType": 5121,
      "count": 1674,
      "bufferView": 3,
      "byteOffset": 32
    },
    {
      "type": "VEC4",
      "componentType": 5126,
      "count": 1674,
      "bufferView": 3,
      "byteOffset": 36
    },
    {
      "type": "VEC3",
      "componentType": 5126,
      "count": 263,
      "max": [
        0.5919074416160583,
        1.9867632389068604,
        0.5263190865516663
      ],
      "min": [
        -0.5919074416160583,
        1.2158737182617188,
        -0.32526925206184387
      ],
      "bufferView": 4,
      "byteOffset": 0
    },
    {
      "type": "VEC3",
      "componentType": 5126,
      "count": 263,
      "bufferView": 4,
      "byteOffset": 12
    },
    {
      "type": "VEC2",
      "componentType": 5126,
      "count": 263,
      "bufferView": 4,
      "byteOffset": 24
    },
    {
      "type": "VEC4",
      "componentType": 5121,
      "count": 263,
      "bufferView": 4,
      "byteOffset": 32
    },
    {
      "type": "VEC4",
      "componentType": 5126,
      "count": 263,
      "bufferView": 4,
      "byteOffset": 36
    },
    {
      "type": "VEC3",
      "componentType": 5126,
      "count": 1667,
      "max": [
        0.7391880750656128,
        2.47739315032959,
        0.5938201546669006
      ],
      "min": [
        -0.7391594052314758,
        1.1695683002471924,
        -0.7565142512321472
      ],
      "bufferView": 5,
      "byteOffset": 0
    },
    {
      "type": "VEC3",
      "componentType": 5126,
      "count": 1667,
      "bufferView": 5,
      "byteOffset": 12
    },
    {
      "type": "VEC2",
      "componentType": 5126,
      "count": 1667,
      "bufferView": 5,
      "byteOffset": 24
    },
    {
      "type": "VEC4",
      "componentType": 5121,
      "count": 1667,
      "bufferView": 5,
      "byteOffset": 32
    },
    {
      "type": "VEC4",
      "componentType": 5126,
      "count": 1667,
      "bufferView": 5,
      "byteOffset": 36
    },
    {
      "type": "VEC3",
      "componentType": 5126,
      "count": 556,
      "max": [
        0.28490912914276123,
        0.5291943550109863,
        0.26630863547325134
      ],
      "min": [
        0.05216627195477486,
        0,
        -0.13227075338363647
      ],
      "bufferView": 6,
      "byteOffset": 0
    },
    {
      "type": "VEC3",
      "componentType": 5126,
      "count": 556,
      "bufferView": 6,
      "byteOffset": 12
    },
    {
      "type": "VEC2",
      "componentType": 5126,
      "count": 556,
      "bufferView": 6,
      "byteOffset": 24
    },
    {
      "type": "VEC4",
      "componentType": 5121,
      "count": 556,
      "bufferView": 6,
      "byteOffset": 32
    },
    {
      "type": "VEC4",
      "componentType": 5126,
      "count": 556,
      "bufferView": 6,
      "byteOffset": 36
    },
    {
      "type": "VEC3",
      "componentType": 5126,
      "count": 556,
      "max": [
        -0.05216627195477486,
        0.5291943550109863,
        0.26630863547325134
      ],
      "min": [
        -0.28490912914276123,
        0,
        -0.13227075338363647
      ],
      "bufferView": 7,
      "byteOffset": 0
    },
    {
      "type": "VEC3",
      "componentType": 5126,
      "count": 556,
      "bufferView": 7,
      "byteOffset": 12
    },
    {
      "type": "VEC2",
      "componentType": 5126,
      "count": 556,
      "bufferView": 7,
      "byteOffset": 24
    },
    {
      "type": "VEC4",
      "componentType": 5121,
      "count": 556,
      "bufferView": 7,
      "byteOffset": 32
    },
    {
      "type": "VEC4",
      "componentType": 5126,
      "count": 556,
      "bufferView": 7,
      "byteOffset": 36
    },
    {
      "type": "MAT4",
      "componentType": 5126,
      "count": 41,
      "bufferView": 8,
      "byteOffset": 0
    },
    {
      "type": "MAT4",
      "componentType": 5126,
      "count": 41,
      "bufferView": 8,
      "byteOffset": 2624
    },
    {
      "type": "MAT4",
      "componentType": 5126,
      "count": 41,
      "bufferView": 8,
      "byteOffset": 5248
    },
    {
      "type": "MAT4",
      "componentType": 5126,
      "count": 41,
      "bufferView": 8,
      "byteOffset": 7872
    },
    {
      "type": "MAT4",
      "componentType": 5126,
      "count": 41,
      "bufferView": 8,
      "byteOffset": 10496
    },
    {
      "type": "MAT4",
      "componentType": 5126,
      "count": 41,
      "bufferView": 8,
      "byteOffset": 13120
    },
    {
      "type": "MAT4",
      "componentType": 5126,
      "count": 41,
      "bufferView": 8,
      "byteOffset": 15744
    }
  ],
  "bufferViews": [
    {
      "buffer": 0,
      "byteOffset": 0,
      "byteLength": 22464,
      "byteStride": 52,
      "target": 34962
    },
    {
      "buffer": 0,
      "byteOffset": 22464,
      "byteLength": 38264,
      "target": 34963
    },
    {
      "buffer": 0,
      "byteOffset": 60728,
      "byteLength": 16640,
      "byteStride": 52,
      "target": 34962
    },
    {
      "buffer": 0,
      "byteOffset": 77368,
      "byteLength": 87048,
      "byteStride": 52,
      "target": 34962
    },
    {
      "buffer": 0,
      "byteOffset": 164416,
      "byteLength": 13676,
      "byteStride": 52,
      "target": 34962
    },
    {
      "buffer": 0,
      "byteOffset": 178092,
      "byteLength": 86684,
      "byteStride": 52,
      "target": 34962
    },
    {
      "buffer": 0,
      "byteOffset": 264776,
      "byteLength": 28912,
      "byteStride": 52,
      "target": 34962
    },
    {
      "buffer": 0,
      "byteOffset": 293688,
      "byteLength": 28912,
      "byteStride": 52,
      "target": 34962
    },
    {
      "buffer": 0,
      "byteOffset": 322600,
      "byteLength": 18368
    }
  ],
  "samplers": [
    {
      "magFilter": 9729,
      "minFilter": 9987,
      "wrapS": 10497,
      "wrapT": 10497
    }
  ],
  "textures": [
    {
      "source": 0,
      "sampler": 0
    },
    {
      "source": 1,
      "sampler": 0
    }
  ],
  "images": [
    {
      "mimeType": "image/png",
      "uri": "baseColor_1.png"
    },
    {
      "mimeType": "image/png",
      "uri": "baseColor_2.png"
    }
  ],
  "buffers": [
    {
      "uri": "buffer.bin",
      "byteLength": 340968
    }
  ],
  "materials": [
    {
      "name": "godette_texture",
      "doubleSided": true,
      "pbrMetallicRoughness": {
        "roughnessFactor": 0.5,
        "metallicFactor": 0,
        "baseColorTexture": {
          "index": 0
        }
      }
    },
    {
      "name": "godette_face",
      "pbrMetallicRoughness": {
        "roughnessFactor": 0.5,
        "metallicFactor": 0,
        "baseColorTexture": {
          "index": 1
        }
      }
    }
  ],
  "meshes": [
    {
      "primitives": [
        {
          "attributes": {
            "POSITION": 0,
            "NORMAL": 1,
            "TEXCOORD_0": 2,
            "JOINTS_0": 3,
            "WEIGHTS_0": 4
          },
          "mode": 4,
          "material": 0,
          "indices": 5
        }
      ]
    },
    {
      "primitives": [
        {
          "attributes": {
            "POSITION": 12,
            "NORMAL": 13,
            "TEXCOORD_0": 14,
            "JOINTS_0": 15,
            "WEIGHTS_0": 16
          },
          "mode": 4,
          "material": 0,
          "indices": 6
        }
      ]
    },
    {
      "primitives": [
        {
          "attributes": {
            "POSITION": 17,
            "NORMAL": 18,
            "TEXCOORD_0": 19,
            "JOINTS_0": 20,
            "WEIGHTS_0": 21
          },
          "mode": 4,
          "material": 0,
          "indices": 7
        }
      ]
    },
    {
      "primitives": [
        {
          "attributes": {
            "POSITION": 22,
            "NORMAL": 23,
            "TEXCOORD_0": 24,
            "JOINTS_0": 25,
            "WEIGHTS_0": 26
          },
          "mode": 4,
          "material": 1,
          "indices": 8
        }
      ]
    },
    {
      "primitives": [
        {
          "attributes": {
            "POSITION": 27,
            "NORMAL": 28,
            "TEXCOORD_0": 29,
            "JOINTS_0": 30,
            "WEIGHTS_0": 31
          },
          "mode": 4,
          "material": 0,
          "indices": 9
        }
      ]
    },
    {
      "primitives": [
        {
          "attributes": {
            "POSITION": 32,
            "NORMAL": 33,
            "TEXCOORD_0": 34,
            "JOINTS_0": 35,
            "WEIGHTS_0": 36
          },
          "mode": 4,
          "material": 0,
          "indices": 10
        }
      ]
    },
    {
      "primitives": [
        {
          "attributes": {
            "POSITION": 37,
            "NORMAL": 38,
            "TEXCOORD_0": 39,
            "JOINTS_0": 40,
            "WEIGHTS_0": 41
          },
          "mode": 4,
          "material": 0,
          "indices": 11
        }
      ]
    }
  ],
  "nodes": [
    {
      "name": "Scene",
      "children": [
        1
      ]
    },
    {
      "name": "Rig",
      "extras": {
        "name": "Rig"
      },
      "children": [
        2,
        3,
        4,
        5,
        8,
        9,
        10
      ]
    },
    {
      "name": "Godette_ArmLeft",
      "extras": {
        "name": "Godette_ArmLeft"
      },
      "mesh": 0,
      "skin": 0
    },
    {
      "name": "Godette_ArmRight",
      "extras": {
        "name": "Godette_ArmRight"
      },
      "mesh": 1,
      "skin": 1
    },
    {
      "name": "Godette_Body",
      "extras": {
        "name": "Godette_Body"
      },
      "mesh": 2,
      "skin": 2
    },
    {
      "name": "Godette_Head",
      "extras": {
        "name": "Godette_Head"
      },
      "children": [
        6,
        7
      ]
    },
    {
      "name": "Godette_Head_1",
      "mesh": 3,
      "skin": 3
    },
    {
      "name": "Godette_Head_2",
      "mesh": 4,
      "skin": 4
    },
    {
      "name": "Godette_LegLeft",
      "extras": {
        "name": "Godette_LegLeft"
      },
      "mesh": 5,
      "skin": 5
    },
    {
      "name": "Godette_LegRight",
      "extras": {
        "name": "Godette_LegRight"
      },
      "mesh": 6,
      "skin": 6
    },
    {
      "name": "root",
      "extras": {
        "name": "root"
      },
      "children": [
        11,
        33,
        34,
        40,
        41,
        47,
        48,
        49,
        50
      ]
    },
    {
      "name": "hips",
      "extras": {
        "name": "hips"
      },
      "translation": [
        0,
        0.4056634306907654,
        0
      ],
      "children": [
        12,
        25,
        29
      ]
    },
    {
      "name": "spine",
      "extras": {
        "name": "spine"
      },
      "translation": [
        0,
        0.19197750091552734,
        0
      ],
      "children": [
        13
      ]
    },
    {
      "name": "chest",
      "extras": {
        "name": "chest"
      },
      "translation": [
        0,
        0.37498795986175537,
        0
      ],
      "children": [
        14,
        19,
        24
      ]
    },
    {
      "name": "upperarml",
      "extras": {
        "name": "upperarm.l"
      },
      "translation": [
        0.21200737357139587,
        0.13413214683532715,
        8.40246201505579e-8
      ],
      "rotation": [
        -0.5141215346170531,
        -0.4854678535391518,
        -0.4854678200932162,
        0.5141217609259457
      ],
      "children": [
        15
      ]
    },
    {
      "name": "lowerarml",
      "extras": {
        "name": "lowerarm.l"
      },
      "translation": [
        -3.219664979070558e-9,
        0.24189729988574982,
        -1.1940561250867177e-7
      ],
      "rotation": [
        1.6480538344143106e-9,
        -5.9503624454017e-8,
        -0.055285521860067306,
        0.9984705859827101
      ],
      "children": [
        16
      ]
    },
    {
      "name": "wristl",
      "extras": {
        "name": "wrist.l"
      },
      "translation": [
        8.719291955117114e-9,
        0.26004382967948914,
        -1.5019517574099694e-10
      ],
      "rotation": [
        -9.737839854055031e-11,
        -2.984371065553449e-10,
        0.0266581014595296,
        0.9996446096621405
      ],
      "children": [
        17
      ]
    },
    {
      "name": "handl",
      "extras": {
        "name": "hand.l"
      },
      "translation": [
        9.08162434143378e-13,
        0.07382583618164062,
        2.220446049250313e-16
      ],
      "children": [
        18
      ]
    },
    {
      "name": "handslotl",
      "extras": {
        "name": "handslot.l"
      },
      "translation": [
        8.348148838877023e-10,
        0.09612506628036499,
        -0.05750012397766113
      ],
      "rotation": [
        1.6097530534895209e-9,
        1.6097529975667263e-9,
        -0.7071068286895769,
        0.7071067336835151
      ]
    },
    {
      "name": "upperarmr",
      "extras": {
        "name": "upperarm.r"
      },
      "translation": [
        -0.21200737357139587,
        0.13413214683532715,
        8.40246201505579e-8
      ],
      "rotation": [
        -0.5141214477233199,
        0.4854677665569293,
        0.48546779432503795,
        0.5141218775730398
      ],
      "children": [
        20
      ]
    },
    {
      "name": "lowerarmr",
      "extras": {
        "name": "lowerarm.r"
      },
      "translation": [
        -7.121856576697283e-11,
        0.2418973296880722,
        -1.1940561250867177e-7
      ],
      "rotation": [
        1.6480530572581786e-9,
        5.950363866487197e-8,
        0.055285521860067306,
        0.9984705859827101
      ],
      "children": [
        21
      ]
    },
    {
      "name": "wristr",
      "extras": {
        "name": "wrist.r"
      },
      "translation": [
        -8.719307942328669e-9,
        0.26004382967948914,
        -1.5019406551797232e-10
      ],
      "rotation": [
        -9.737757975099845e-11,
        2.984371065553449e-10,
        -0.0266581014595296,
        0.9996446096621405
      ],
      "children": [
        22
      ]
    },
    {
      "name": "handr",
      "extras": {
        "name": "hand.r"
      },
      "translation": [
        6.661338147750939e-15,
        0.07382583618164062,
        2.220446049250313e-16
      ],
      "children": [
        23
      ]
    },
    {
      "name": "handslotr",
      "extras": {
        "name": "handslot.r"
      },
      "translation": [
        -8.348077784603447e-10,
        0.09612506628036499,
        -0.05750012397766113
      ],
      "rotation": [
        1.6097330694757633e-9,
        -1.6097329025299826e-9,
        0.7071068286895769,
        0.7071067336835151
      ]
    },
    {
      "name": "head",
      "extras": {
        "name": "head"
      },
      "translation": [
        0,
        0.26879656314849854,
        0
      ]
    },
    {
      "name": "upperlegl",
      "extras": {
        "name": "upperleg.l"
      },
      "translation": [
        0.17094506323337555,
        0.11358726024627686,
        1.392326964833046e-8
      ],
      "rotation": [
        0.999849074730385,
        -7.132765444588621e-8,
        -1.2042731164975101e-8,
        0.01737319086373943
      ],
      "children": [
        26
      ]
    },
    {
      "name": "lowerlegl",
      "extras": {
        "name": "lowerleg.l"
      },
      "translation": [
        3.579757601457345e-9,
        0.22707749903202057,
        -6.140323360881439e-9
      ],
      "rotation": [
        0.10622515113274192,
        6.865288783352454e-8,
        -7.377021000485964e-8,
        0.9943421027326641
      ],
      "children": [
        27
      ]
    },
    {
      "name": "footl",
      "extras": {
        "name": "foot.l"
      },
      "translation": [
        1.8334014861842718e-10,
        0.14943702518939972,
        9.660858779625414e-10
      ],
      "rotation": [
        -0.45523903517096476,
        1.6197011980446016e-8,
        -3.435666789851932e-8,
        0.8903692609567154
      ],
      "children": [
        28
      ]
    },
    {
      "name": "toesl",
      "extras": {
        "name": "toes.l"
      },
      "translation": [
        -1.5114355988998796e-8,
        0.16565002501010895,
        5.17147658030126e-9
      ],
      "rotation": [
        4.775987925919961e-8,
        0.9203549468275819,
        -0.39108409818093215,
        5.8015612682221575e-8
      ]
    },
    {
      "name": "upperlegr",
      "extras": {
        "name": "upperleg.r"
      },
      "translation": [
        -0.17094506323337555,
        0.11358726024627686,
        1.3923274977400979e-8
      ],
      "rotation": [
        0.9998490747303843,
        7.426573441924831e-8,
        -3.1726280085571476e-8,
        0.017373190863739396
      ],
      "children": [
        30
      ]
    },
    {
      "name": "lowerlegr",
      "extras": {
        "name": "lowerleg.r"
      },
      "translation": [
        -3.57975737941274e-9,
        0.22707749903202057,
        -6.140328689951957e-9
      ],
      "rotation": [
        0.10622515113274192,
        -6.865290914980881e-8,
        7.377020289943155e-8,
        0.9943421027326641
      ],
      "children": [
        31
      ]
    },
    {
      "name": "footr",
      "extras": {
        "name": "foot.r"
      },
      "translation": [
        -1.8333914941770502e-10,
        0.14943702518939972,
        9.660858779625414e-10
      ],
      "rotation": [
        -0.45523903517096825,
        1.6598254613054867e-7,
        2.2507591047370135e-9,
        0.890369260956699
      ],
      "children": [
        32
      ]
    },
    {
      "name": "toesr",
      "extras": {
        "name": "toes.r"
      },
      "translation": [
        2.1319421228405133e-10,
        0.16565002501010895,
        5.171479244836519e-9
      ],
      "rotation": [
        2.1219817330431118e-8,
        0.9203549468275825,
        -0.3910840981809323,
        6.450590874591318e-8
      ]
    },
    {
      "name": "kneeIKl",
      "extras": {
        "name": "kneeIK.l"
      },
      "translation": [
        0.1709449142217636,
        0.29231026768684387,
        0.5758124589920044
      ],
      "rotation": [
        0.7071068286895688,
        -2.2930234232305738e-7,
        -4.605520305328497e-8,
        0.7071067336834844
      ]
    },
    {
      "name": "control-toe-rolll",
      "extras": {
        "name": "control-toe-roll.l"
      },
      "translation": [
        0.1709449738264084,
        0.025990262627601624,
        0.24578937888145447
      ],
      "rotation": [
        -0.7071068286895689,
        -7.05285098493854e-8,
        -7.052848616240067e-8,
        0.7071067336835161
      ],
      "children": [
        35
      ]
    },
    {
      "name": "control-heel-rolll",
      "extras": {
        "name": "control-heel-roll.l"
      },
      "translation": [
        1.945810801373682e-8,
        0.3628326654434204,
        -2.42861286636753e-15
      ],
      "rotation": [
        7.105436674963422e-15,
        -1.3832109255376131e-22,
        1,
        -2.0027602092392325e-34
      ],
      "children": [
        36,
        39
      ]
    },
    {
      "name": "control-foot-rolll",
      "extras": {
        "name": "control-foot-roll.l"
      },
      "translation": [
        -1.1148218348466798e-8,
        0.21343614161014557,
        -2.5094195977773534e-15
      ],
      "rotation": [
        -1.0403523726897853e-7,
        0.3910843430418808,
        0.9203548427793972,
        -2.9526047348390515e-8
      ],
      "children": [
        37,
        38
      ]
    },
    {
      "name": "heelIKl",
      "extras": {
        "name": "heelIK.l"
      },
      "translation": [
        8.589883471188386e-9,
        0.16565003991127014,
        -5.091369104093246e-9
      ],
      "rotation": [
        -0.39108434330121544,
        -6.885000661514168e-8,
        -6.562877532532503e-8,
        0.9203548426692001
      ]
    },
    {
      "name": "IK-footl",
      "extras": {
        "name": "IK-foot.l"
      },
      "translation": [
        8.589883471188386e-9,
        0.16565003991127014,
        -5.091369104093246e-9
      ],
      "rotation": [
        0.9999999999999811,
        -1.3322699588907676e-15,
        1.9470719792024825e-7,
        2.3509887016446194e-38
      ]
    },
    {
      "name": "IK-toel",
      "extras": {
        "name": "IK-toe.l"
      }
    },
    {
      "name": "kneeIKr",
      "extras": {
        "name": "kneeIK.r"
      },
      "translation": [
        -0.1709451824426651,
        0.29231026768684387,
        0.5758123397827148
      ],
      "rotation": [
        0.7071068286895686,
        -3.8238512676546436e-8,
        1.45008648711637e-7,
        0.7071067336835073
      ]
    },
    {
      "name": "control-toe-rollr",
      "extras": {
        "name": "control-toe-roll.r"
      },
      "translation": [
        -0.17094509303569794,
        0.025990262627601624,
        0.2457892894744873
      ],
      "rotation": [
        -0.7071068286895689,
        -7.052851695481418e-8,
        -7.052850037325586e-8,
        0.7071067336835161
      ],
      "children": [
        42
      ]
    },
    {
      "name": "control-heel-rollr",
      "extras": {
        "name": "control-heel-roll.r"
      },
      "translation": [
        1.945810623737998e-8,
        0.3628326654434204,
        2.42861286636753e-15
      ],
      "rotation": [
        7.105436674963422e-15,
        -1.3832099157956544e-22,
        1,
        -2.002761127594194e-34
      ],
      "children": [
        43,
        46
      ]
    },
    {
      "name": "control-foot-rollr",
      "extras": {
        "name": "control-foot-roll.r"
      },
      "translation": [
        3.752940180845599e-9,
        0.21343614161014557,
        0
      ],
      "rotation": [
        -1.0403521595269647e-7,
        0.3910843430418808,
        0.9203548427793972,
        -2.95260366902495e-8
      ],
      "children": [
        44,
        45
      ]
    },
    {
      "name": "heelIKr",
      "extras": {
        "name": "heelIK.r"
      },
      "translation": [
        -6.311273281767171e-9,
        0.16565003991127014,
        1.3660930164860474e-9
      ],
      "rotation": [
        -0.39108434330121544,
        -6.885000661514168e-8,
        -6.562874690361559e-8,
        0.9203548426692001
      ]
    },
    {
      "name": "IK-footr",
      "extras": {
        "name": "IK-foot.r"
      },
      "translation": [
        -2.1212434475614828e-8,
        0.16565003991127014,
        1.3660872433263194e-9
      ],
      "rotation": [
        0.9999999999999811,
        -5.3290726357830186e-15,
        1.9470718370939353e-7,
        9.403954806578478e-38
      ]
    },
    {
      "name": "IK-toer",
      "extras": {
        "name": "IK-toe.r"
      }
    },
    {
      "name": "elbowIKl",
      "extras": {
        "name": "elbowIK.l"
      },
      "translation": [
        0.4535074830055237,
        1.10676109790802,
        -0.5888593792915344
      ],
      "rotation": [
        -0.7071068286895689,
        -7.279512016471678e-8,
        -7.279508906776547e-8,
        0.7071067336835155
      ]
    },
    {
      "name": "handIKl",
      "extras": {
        "name": "handIK.l"
      },
      "translation": [
        0.7131814956665039,
        1.10676109790802,
        2.549140845076181e-7
      ],
      "rotation": [
        0.4999999105930302,
        0.5000000298023197,
        0.5000000596046412,
        -0.4999999701976785
      ]
    },
    {
      "name": "elbowIKr",
      "extras": {
        "name": "elbowIK.r"
      },
      "translation": [
        -0.4535071849822998,
        1.10676109790802,
        -0.5888596177101135
      ],
      "rotation": [
        -0.7071068286895689,
        -7.279512016471678e-8,
        -7.279508906776547e-8,
        0.7071067336835155
      ]
    },
    {
      "name": "handIKr",
      "extras": {
        "name": "handIK.r"
      },
      "translation": [
        -0.7131815552711487,
        1.10676109790802,
        -8.515729632563307e-8
      ],
      "rotation": [
        0.5000000596046412,
        -0.4999999105930337,
        -0.49999997019768205,
        -0.5000000298023197
      ]
    }
  ],
  "skins": [
    {
      "inverseBindMatrices": 42,
      "skeleton": 10,
      "joints": [
        10,
        11,
        12,
        13,
        14,
        15,
        16,
        17,
        18,
        19,
        20,
        21,
        22,
        23,
        24,
        25,
        26,
        27,
        28,
        29,
        30,
        31,
        32,
        33,
        34,
        35,
        36,
        37,
        38,
        39,
        40,
        41,
        42,
        43,
        44,
        45,
        46,
        47,
        48,
        49,
        50
      ]
    },
    {
      "inverseBindMatrices": 43,
      "skeleton": 10,
      "joints": [
        10,
        11,
        12,
        13,
        14,
        15,
        16,
        17,
        18,
        19,
        20,
        21,
        22,
        23,
        24,
        25,
        26,
        27,
        28,
        29,
        30,
        31,
        32,
        33,
        34,
        35,
        36,
        37,
        38,
        39,
        40,
        41,
        42,
        43,
        44,
        45,
        46,
        47,
        48,
        49,
        50
      ]
    },
    {
      "inverseBindMatrices": 44,
      "skeleton": 10,
      "joints": [
        10,
        11,
        12,
        13,
        14,
        15,
        16,
        17,
        18,
        19,
        20,
        21,
        22,
        23,
        24,
        25,
        26,
        27,
        28,
        29,
        30,
        31,
        32,
        33,
        34,
        35,
        36,
        37,
        38,
        39,
        40,
        41,
        42,
        43,
        44,
        45,
        46,
        47,
        48,
        49,
        50
      ]
    },
    {
      "inverseBindMatrices": 45,
      "skeleton": 10,
      "joints": [
        10,
        11,
        12,
        13,
        14,
        15,
        16,
        17,
        18,
        19,
        20,
        21,
        22,
        23,
        24,
        25,
        26,
        27,
        28,
        29,
        30,
        31,
        32,
        33,
        34,
        35,
        36,
        37,
        38,
        39,
        40,
        41,
        42,
        43,
        44,
        45,
        46,
        47,
        48,
        49,
        50
      ]
    },
    {
      "inverseBindMatrices": 46,
      "skeleton": 10,
      "joints": [
        10,
        11,
        12,
        13,
        14,
        15,
        16,
        17,
        18,
        19,
        20,
        21,
        22,
        23,
        24,
        25,
        26,
        27,
        28,
        29,
        30,
        31,
        32,
        33,
        34,
        35,
        36,
        37,
        38,
        39,
        40,
        41,
        42,
        43,
        44,
        45,
        46,
        47,
        48,
        49,
        50
      ]
    },
    {
      "inverseBindMatrices": 47,
      "skeleton": 10,
      "joints": [
        10,
        11,
        12,
        13,
        14,
        15,
        16,
        17,
        18,
        19,
        20,
        21,
        22,
        23,
        24,
        25,
        26,
        27,
        28,
        29,
        30,
        31,
        32,
        33,
        34,
        35,
        36,
        37,
        38,
        39,
        40,
        41,
        42,
        43,
        44,
        45,
        46,
        47,
        48,
        49,
        50
      ]
    },
    {
      "inverseBindMatrices": 48,
      "skeleton": 10,
      "joints": [
        10,
        11,
        12,
        13,
        14,
        15,
        16,
        17,
        18,
        19,
        20,
        21,
        22,
        23,
        24,
        25,
        26,
        27,
        28,
        29,
        30,
        31,
        32,
        33,
        34,
        35,
        36,
        37,
        38,
        39,
        40,
        41,
        42,
        43,
        44,
        45,
        46,
        47,
        48,
        49,
        50
      ]
    }
  ],
  "scenes": [
    {
      "name": "AuxScene",
      "nodes": [
        0
      ]
    }
  ],
  "scene": 0
}