# Blender v2.93.5 OBJ File: ''
# www.blender.org
mtllib hevmedkit.mtl
o Cylinder
v -6.246317 17.708431 4.764536
v -6.246317 5.259081 4.764536
v -7.338301 17.708431 4.658222
v -7.338301 5.259081 4.658222
v -8.388321 17.708431 4.343368
v -8.388321 5.259081 4.343368
v -9.356024 17.708431 3.832072
v -9.356024 5.259081 3.832072
v -10.204224 17.708431 3.143983
v -10.204224 5.259081 3.143983
v -10.900323 17.708431 2.305544
v -10.900323 5.259081 2.305544
v -11.417571 17.708431 1.348976
v -11.417571 5.259081 1.348976
v -11.736092 17.708431 0.311040
v -11.736092 5.259081 0.311040
v -11.843642 17.708431 -0.768378
v -11.843642 5.259081 -0.768378
v -11.736092 17.708431 -1.847796
v -11.736092 5.259081 -1.847796
v -11.417572 17.708431 -2.885732
v -11.417572 5.259081 -2.885732
v -10.900323 17.708431 -3.842300
v -10.900323 5.259081 -3.842300
v -10.204224 17.708431 -4.680738
v -10.204224 5.259081 -4.680738
v -9.356024 17.708431 -5.368828
v -9.356024 5.259081 -5.368828
v -8.388321 17.708431 -5.880123
v -8.388321 5.259081 -5.880123
v -7.338301 17.708431 -6.194979
v -7.338301 5.259081 -6.194979
v -6.246316 17.708431 -6.301291
v -6.246316 5.259081 -6.301291
v -5.154333 17.708431 -6.194979
v -5.154333 5.259081 -6.194979
v -4.104313 17.708431 -5.880123
v -4.104313 5.259081 -5.880123
v -3.136609 17.708431 -5.368827
v -3.136609 5.259081 -5.368827
v -2.288411 17.708431 -4.680739
v -2.288411 5.259081 -4.680739
v -1.592312 17.708431 -3.842301
v -1.592312 5.259081 -3.842301
v -1.075063 17.708431 -2.885733
v -1.075063 5.259081 -2.885733
v -0.756543 17.708431 -1.847796
v -0.756543 5.259081 -1.847796
v -0.648992 17.708431 -0.768378
v -0.648992 5.259081 -0.768378
v -0.756543 17.708431 0.311040
v -0.756543 5.259081 0.311040
v -1.075063 17.708431 1.348977
v -1.075063 5.259081 1.348977
v -1.592310 17.708431 2.305543
v -1.592310 5.259081 2.305543
v -2.288410 17.708431 3.143982
v -2.288410 5.259081 3.143982
v -3.136609 17.708431 3.832072
v -3.136609 5.259081 3.832072
v -4.104313 17.708431 4.343368
v -4.104313 5.259081 4.343368
v -5.154333 17.708431 4.658222
v -5.154333 5.259081 4.658222
vt 1.000000 0.500000
vt 0.968750 0.500000
vt 0.968750 1.000000
vt 1.000000 1.000000
vt 0.937500 0.500000
vt 0.937500 1.000000
vt 0.906250 0.500000
vt 0.906250 1.000000
vt 0.875000 0.500000
vt 0.875000 1.000000
vt 0.843750 0.500000
vt 0.843750 1.000000
vt 0.812500 0.500000
vt 0.812500 1.000000
vt 0.781250 0.500000
vt 0.781250 1.000000
vt 0.750000 0.500000
vt 0.750000 1.000000
vt 0.718750 0.500000
vt 0.718750 1.000000
vt 0.687500 0.500000
vt 0.687500 1.000000
vt 0.656250 0.500000
vt 0.656250 1.000000
vt 0.625000 0.500000
vt 0.625000 1.000000
vt 0.593750 0.500000
vt 0.593750 1.000000
vt 0.562500 0.500000
vt 0.562500 1.000000
vt 0.531250 0.500000
vt 0.531250 1.000000
vt 0.500000 0.500000
vt 0.500000 1.000000
vt 0.468750 0.500000
vt 0.468750 1.000000
vt 0.437500 0.500000
vt 0.437500 1.000000
vt 0.406250 0.500000
vt 0.406250 1.000000
vt 0.375000 0.500000
vt 0.375000 1.000000
vt 0.343750 0.500000
vt 0.343750 1.000000
vt 0.312500 0.500000
vt 0.312500 1.000000
vt 0.281250 0.500000
vt 0.281250 1.000000
vt 0.250000 0.500000
vt 0.250000 1.000000
vt 0.218750 0.500000
vt 0.218750 1.000000
vt 0.187500 0.500000
vt 0.187500 1.000000
vt 0.156250 0.500000
vt 0.156250 1.000000
vt 0.125000 0.500000
vt 0.125000 1.000000
vt 0.093750 0.500000
vt 0.093750 1.000000
vt 0.062500 0.500000
vt 0.062500 1.000000
vt 0.296822 0.485388
vt 0.341844 0.471731
vt 0.383337 0.449553
vt 0.419706 0.419706
vt 0.449553 0.383337
vt 0.471731 0.341844
vt 0.485388 0.296822
vt 0.490000 0.250000
vt 0.485388 0.203178
vt 0.471731 0.158156
vt 0.449553 0.116663
vt 0.419706 0.080294
vt 0.383337 0.050447
vt 0.341844 0.028269
vt 0.296822 0.014612
vt 0.250000 0.010000
vt 0.203178 0.014612
vt 0.158156 0.028269
vt 0.116663 0.050447
vt 0.080294 0.080294
vt 0.050447 0.116663
vt 0.028269 0.158156
vt 0.014612 0.203178
vt 0.010000 0.250000
vt 0.014612 0.296822
vt 0.028269 0.341844
vt 0.050447 0.383337
vt 0.080294 0.419706
vt 0.116663 0.449553
vt 0.158156 0.471731
vt 0.203178 0.485388
vt 0.250000 0.490000
vt 0.031250 0.500000
vt 0.031250 1.000000
vt 0.000000 0.500000
vt 0.000000 1.000000
vt 0.750000 0.490000
vt 0.703178 0.485388
vt 0.658156 0.471731
vt 0.616663 0.449553
vt 0.580294 0.419706
vt 0.550447 0.383337
vt 0.528269 0.341844
vt 0.514612 0.296822
vt 0.510000 0.250000
vt 0.514612 0.203178
vt 0.528269 0.158156
vt 0.550447 0.116663
vt 0.580294 0.080294
vt 0.616663 0.050447
vt 0.658156 0.028269
vt 0.703178 0.014612
vt 0.750000 0.010000
vt 0.796822 0.014612
vt 0.841844 0.028269
vt 0.883337 0.050447
vt 0.919706 0.080294
vt 0.949553 0.116663
vt 0.971731 0.158156
vt 0.985388 0.203178
vt 0.990000 0.250000
vt 0.985388 0.296822
vt 0.971731 0.341844
vt 0.949553 0.383337
vt 0.919706 0.419706
vt 0.883337 0.449553
vt 0.841844 0.471731
vt 0.796822 0.485388
vn -0.0969 0.0000 0.9953
vn -0.2872 0.0000 0.9579
vn -0.4672 0.0000 0.8842
vn -0.6300 0.0000 0.7766
vn -0.7694 0.0000 0.6388
vn -0.8796 0.0000 0.4756
vn -0.9560 0.0000 0.2934
vn -0.9951 0.0000 0.0991
vn -0.9951 0.0000 -0.0991
vn -0.9560 0.0000 -0.2934
vn -0.8796 0.0000 -0.4756
vn -0.7694 0.0000 -0.6388
vn -0.6300 0.0000 -0.7766
vn -0.4672 0.0000 -0.8842
vn -0.2872 0.0000 -0.9579
vn -0.0969 0.0000 -0.9953
vn 0.0969 0.0000 -0.9953
vn 0.2872 0.0000 -0.9579
vn 0.4672 0.0000 -0.8842
vn 0.6300 0.0000 -0.7766
vn 0.7694 0.0000 -0.6388
vn 0.8796 0.0000 -0.4756
vn 0.9560 0.0000 -0.2934
vn 0.9951 0.0000 -0.0991
vn 0.9951 0.0000 0.0991
vn 0.9560 0.0000 0.2934
vn 0.8796 0.0000 0.4756
vn 0.7694 0.0000 0.6388
vn 0.6300 0.0000 0.7766
vn 0.4672 0.0000 0.8842
vn 0.0000 -1.0000 0.0000
vn 0.2872 0.0000 0.9579
vn 0.0969 0.0000 0.9953
vn 0.0000 1.0000 -0.0000
usemtl Material.001
s off
f 1/1/1 3/2/1 4/3/1 2/4/1
f 3/2/2 5/5/2 6/6/2 4/3/2
f 5/5/3 7/7/3 8/8/3 6/6/3
f 7/7/4 9/9/4 10/10/4 8/8/4
f 9/9/5 11/11/5 12/12/5 10/10/5
f 11/11/6 13/13/6 14/14/6 12/12/6
f 13/13/7 15/15/7 16/16/7 14/14/7
f 15/15/8 17/17/8 18/18/8 16/16/8
f 17/17/9 19/19/9 20/20/9 18/18/9
f 19/19/10 21/21/10 22/22/10 20/20/10
f 21/21/11 23/23/11 24/24/11 22/22/11
f 23/23/12 25/25/12 26/26/12 24/24/12
f 25/25/13 27/27/13 28/28/13 26/26/13
f 27/27/14 29/29/14 30/30/14 28/28/14
f 29/29/15 31/31/15 32/32/15 30/30/15
f 31/31/16 33/33/16 34/34/16 32/32/16
f 33/33/17 35/35/17 36/36/17 34/34/17
f 35/35/18 37/37/18 38/38/18 36/36/18
f 37/37/19 39/39/19 40/40/19 38/38/19
f 39/39/20 41/41/20 42/42/20 40/40/20
f 41/41/21 43/43/21 44/44/21 42/42/21
f 43/43/22 45/45/22 46/46/22 44/44/22
f 45/45/23 47/47/23 48/48/23 46/46/23
f 47/47/24 49/49/24 50/50/24 48/48/24
f 49/49/25 51/51/25 52/52/25 50/50/25
f 51/51/26 53/53/26 54/54/26 52/52/26
f 53/53/27 55/55/27 56/56/27 54/54/27
f 55/55/28 57/57/28 58/58/28 56/56/28
f 57/57/29 59/59/29 60/60/29 58/58/29
f 59/59/30 61/61/30 62/62/30 60/60/30
f 4/63/31 6/64/31 8/65/31 10/66/31 12/67/31 14/68/31 16/69/31 18/70/31 20/71/31 22/72/31 24/73/31 26/74/31 28/75/31 30/76/31 32/77/31 34/78/31 36/79/31 38/80/31 40/81/31 42/82/31 44/83/31 46/84/31 48/85/31 50/86/31 52/87/31 54/88/31 56/89/31 58/90/31 60/91/31 62/92/31 64/93/31 2/94/31
f 61/61/32 63/95/32 64/96/32 62/62/32
f 63/95/33 1/97/33 2/98/33 64/96/33
f 1/99/34 63/100/34 61/101/34 59/102/34 57/103/34 55/104/34 53/105/34 51/106/34 49/107/34 47/108/34 45/109/34 43/110/34 41/111/34 39/112/34 37/113/34 35/114/34 33/115/34 31/116/34 29/117/34 27/118/34 25/119/34 23/120/34 21/121/34 19/122/34 17/123/34 15/124/34 13/125/34 11/126/34 9/127/34 7/128/34 5/129/34 3/130/34
o health_lod1
v -14.685297 44.317329 1.488236
v -16.354435 43.822334 0.970971
v -15.748087 43.458584 0.287722
v -16.458187 44.692074 1.420182
v -15.248260 45.925850 0.852674
v -14.528350 44.690426 -0.280003
v -14.994503 43.821629 -0.229107
v 13.021820 48.002232 -0.608369
v 15.981820 32.772232 -0.608369
v 15.981820 44.892231 -0.608369
v 8.181820 32.772232 -0.608369
v 5.601820 32.802231 -0.608369
v -12.228180 32.802231 -0.608369
v -14.038180 41.352230 -0.608369
v -14.048180 48.002232 -0.608369
v -16.008181 47.582230 1.101630
v -17.148180 44.672230 2.121630
v -16.008181 41.772232 1.101630
v 5.601820 31.082233 -4.688370
v -12.228180 31.082233 -4.688370
v 5.601820 23.782232 2.731629
v -12.228180 23.782232 2.731629
v -12.228180 22.762234 2.731629
v 5.601820 22.762234 2.731629
v -14.641912 45.562103 0.169424
v 5.601820 22.762234 -0.608369
v -14.038180 32.802231 -0.608369
v -16.001842 45.562809 1.369503
v -12.228180 22.762234 -0.608369
v -12.228180 19.342234 -0.608369
v -12.228180 17.652233 -0.608369
v -12.228180 5.132234 -0.608369
v -14.038180 2.662235 -0.608369
v -12.228180 3.442236 -0.608369
v -11.068180 0.002235 -0.608369
v -0.128180 3.442236 -0.608369
v 1.641820 2.642234 -0.608369
v -0.128180 5.132234 -0.608369
v 1.641820 20.142233 -0.608369
v -0.128180 17.652233 -0.608369
v -0.128180 19.342234 -0.608369
v -11.068180 0.002235 -9.588369
v -14.038180 2.662235 -9.588369
v -14.048180 41.352230 -9.588369
v -16.008181 41.772232 -4.088370
v 1.641820 2.642234 -5.578370
v 1.641820 20.142233 -5.578370
v 6.871820 20.142233 -5.568370
v 6.871820 20.142233 -0.608369
v 8.181820 21.532232 -5.558370
v 8.181820 21.532232 -0.608369
v -17.148180 44.672230 -4.088370
v -16.008181 47.582230 -4.088370
v -14.048180 48.002232 -9.588369
v -1.278180 17.652233 2.941629
v -4.308180 19.342234 5.141630
v -4.308180 17.652233 5.141630
v -8.048180 17.652233 5.141630
v -8.048180 19.342234 5.141630
v -11.068180 17.652233 2.941629
v -11.068180 19.342234 2.941629
v 13.021820 48.002232 -9.588369
v 15.981820 44.892231 -9.588369
v 15.981820 32.772232 -5.558370
v 15.981820 2.662235 -9.588369
v 15.981820 2.662235 -5.558370
v 15.971820 2.622236 -0.608369
v -11.068180 3.442236 2.941629
v -11.068180 5.132234 2.941629
v -8.048180 3.442236 5.141630
v -8.048180 5.132234 5.141630
v -4.308180 5.132234 5.141630
v -1.278180 5.132234 2.941629
v -1.278180 3.442236 2.941629
v -4.308180 3.442236 5.141630
v -1.278180 19.342234 2.941629
v 8.181820 32.772232 -5.558370
v 13.021820 0.002235 -9.588369
v 13.021820 0.002235 -0.608369
v -1.278180 17.652233 -4.168370
v -1.278180 5.132234 -4.168370
v -4.308180 17.652233 -6.348370
v -4.308180 5.132234 -6.348370
v -8.048180 17.652233 -6.348370
v -8.048180 5.132234 -6.348370
v -11.068180 17.652233 -4.168370
v -11.068180 5.132234 -4.168370
v 10.380689 19.011147 -3.091107
v 12.110689 19.011148 -4.821107
v 10.380690 17.741148 -3.091108
v 12.110690 17.741150 -4.821108
v 13.830689 19.011148 -3.091107
v 13.830690 17.741150 -3.091108
v 12.110689 19.011147 -1.371107
v 12.110690 17.741148 -1.371108
v 3.139550 8.201142 -3.644005
v 5.049548 10.931143 -3.644003
v 5.049550 8.201143 -3.644005
v 5.049550 8.201142 -2.544005
v 5.049548 10.931142 -2.544003
v 3.139548 10.931141 -2.544003
v 3.139548 10.931141 -3.644003
v 3.309548 10.861142 -3.544003
v 4.879547 12.501143 -3.544002
v 4.879548 10.861143 -3.544003
v 4.879548 10.861142 -2.644003
v 4.879547 12.501142 -2.644002
v 3.309547 12.501142 -2.644002
v 3.309548 10.861141 -2.644003
v 3.309547 12.501142 -3.544002
v 3.889549 8.241141 -3.094005
v 4.089553 3.581141 -3.094008
v 4.089550 8.241141 -2.864005
v 4.299550 8.241141 -3.094005
v 3.139550 8.201141 -2.544005
v 7.931820 31.142233 -3.088370
v 7.931820 27.572233 -3.088370
v 9.421820 31.142233 -3.088370
v 9.421820 27.572233 -3.088370
v 9.101056 22.051149 -0.851101
v 15.111054 29.371151 -0.851099
v 9.101054 29.371149 -0.851099
v 9.101053 31.591150 -3.081098
v 15.111053 31.591152 -3.081098
v 9.101054 29.371151 -5.311099
v 15.111054 29.371153 -5.311099
v 9.101056 22.051151 -5.311101
v 15.111056 22.051153 -5.311101
v 9.101057 19.811150 -3.081102
v 15.111057 19.811152 -3.081102
v 15.111056 22.051151 -0.851101
v 14.067092 22.051147 -0.711103
v 14.067094 18.981146 -0.711105
v 14.067091 23.711147 -1.411102
v 14.067091 24.291147 -3.081102
v 14.067094 18.981150 -5.451105
v 14.067092 22.051149 -5.451103
v 10.147094 18.981148 -5.451105
v 10.147092 22.051147 -5.451103
v 10.147091 24.291145 -3.081102
v 4.615738 19.041142 -3.813786
v 3.355739 19.141140 -3.814221
v 4.615248 19.041140 -2.393786
v 3.355245 19.141138 -2.384221
v 2.955739 17.941139 -3.814359
v 2.955245 17.941139 -2.384360
v 10.825105 4.261144 -1.951646
v 10.825899 4.261144 -4.251646
v 13.275899 4.151147 -4.250800
v 13.275105 4.151146 -1.950800
v 14.135898 6.451147 -4.250503
v 14.135104 6.451146 -1.950503
v 10.147094 18.981144 -0.711105
v 10.147092 22.051144 -0.711103
v 10.147091 23.711143 -1.411102
v 10.870698 5.261147 -2.511115
v 10.870690 17.981148 -3.681108
v 10.870698 5.261148 -3.681116
v 10.870690 17.981148 -2.511107
v 13.350690 17.981150 -2.511107
v 13.350698 5.261150 -2.511115
v 3.139546 13.911141 -2.544001
v 5.049547 12.421142 -2.544002
v 5.049546 13.911142 -2.544001
v 5.049546 13.911143 -3.644001
v 5.049547 12.421142 -3.644002
v 3.139547 12.421141 -3.644002
v 3.139546 13.911142 -3.644001
v 3.139547 12.421140 -2.544002
v 3.349546 13.851141 -2.754001
v 3.349543 18.451141 -3.443998
v 3.349546 13.851141 -3.444001
v 3.349543 18.451141 -2.753998
v 4.829543 18.451141 -2.753998
v 4.829546 13.851142 -2.754001
v 4.829543 18.451143 -3.443998
v 4.829546 13.851142 -3.444001
v 13.350698 5.261151 -3.681116
v 13.350690 17.981150 -3.681108
vt 0.390625 0.781250
vt 0.367188 0.718750
vt 0.390625 0.703125
vt 0.359375 0.781250
vt 0.390625 0.859375
vt 0.414063 0.781250
vt 0.406250 0.718750
vt 0.929688 0.984375
vt 0.984375 0.031250
vt 0.984375 0.796875
vt 0.835938 0.031250
vt 0.789063 0.031250
vt 0.453125 0.031250
vt 0.421875 0.578125
vt 0.421875 0.984375
vt 0.375000 0.953125
vt 0.343750 0.781250
vt 0.375000 0.593750
vt 0.007813 0.296875
vt 0.335938 0.312500
vt 0.007813 0.937500
vt 0.335938 0.937500
vt 0.335938 0.031250
vt 0.007813 0.031250
vt 0.335938 0.984375
vt 0.007813 0.984375
vt 0.406250 0.843750
vt 0.335938 0.031250
vt 0.335938 0.312500
vt 0.414063 0.312500
vt 0.421875 0.031250
vt 0.367188 0.843750
vt 0.414063 0.312500
vt 0.390625 0.765625
vt 0.617188 0.796875
vt 0.359375 0.765625
vt 0.148438 0.765625
vt 0.101563 0.796875
vt 0.117188 0.765625
vt 0.054688 0.734375
vt 0.117188 0.515625
vt 0.101563 0.468750
vt 0.148438 0.515625
vt 0.398438 0.468750
vt 0.359375 0.515625
vt 0.390625 0.515625
vt 0.039063 0.796875
vt 0.039063 0.984375
vt 0.101563 0.984375
vt 0.765625 0.984375
vt 0.765625 0.796875
vt 0.773438 0.875000
vt 0.773438 0.765625
vt 0.820313 0.750000
vt 0.234375 0.031250
vt 0.484375 0.031250
vt 0.234375 0.140625
vt 0.484375 0.140625
vt 0.531250 0.031250
vt 0.531250 0.140625
vt 0.570313 0.031250
vt 0.562500 0.140625
vt 0.726563 0.140625
vt 0.820313 0.875000
vt 0.875000 0.875000
vt 0.875000 0.984375
vt 0.875000 0.765625
vt 0.226563 0.359375
vt 0.265625 0.296875
vt 0.265625 0.359375
vt 0.304688 0.359375
vt 0.304688 0.296875
vt 0.343750 0.359375
vt 0.343750 0.296875
vt 0.382813 0.296875
vt 0.976563 0.375000
vt 0.906250 0.375000
vt 0.976563 0.187500
vt 0.906250 0.187500
vt 0.703125 0.281250
vt 0.171875 0.187500
vt 0.171875 0.281250
vt 0.171875 0.375000
vt 0.445313 0.765625
vt 0.445313 0.390625
vt 0.617188 0.765625
vt 0.835938 0.125000
vt 0.820313 0.109375
vt 0.976563 0.140625
vt 0.835938 0.046875
vt 0.820313 0.109375
vt 0.835938 0.046875
vt 0.976563 0.140625
vt 0.382813 0.437500
vt 0.343750 0.437500
vt 0.382813 0.375000
vt 0.343750 0.375000
vt 0.304688 0.437500
vt 0.304688 0.375000
vt 0.265625 0.375000
vt 0.195313 0.375000
vt 0.226563 0.375000
vt 0.195313 0.437500
vt 0.226563 0.437500
vt 0.265625 0.437500
vt 0.242188 0.531250
vt 0.171875 0.546875
vt 0.242188 0.734375
vt 0.171875 0.718750
vt 0.132813 0.609375
vt 0.132813 0.671875
vt 0.984375 0.421875
vt 0.789063 0.593750
vt 0.468750 0.421875
vt 0.468750 0.718750
vt 0.765625 0.609375
vt 0.765625 0.718750
vt 0.617188 0.328125
vt 0.617188 0.390625
vt 0.421875 0.328125
vt 0.398438 0.359375
vt 0.359375 0.734375
vt 0.289063 0.718750
vt 0.289063 0.562500
vt 0.250000 0.609375
vt 0.250000 0.671875
vt 0.226563 0.296875
vt 0.195313 0.296875
vt 0.195313 0.359375
vt 0.796875 0.140625
vt 0.804688 0.031250
vt 0.726563 0.031250
vt 0.125000 0.187500
vt 0.125000 0.375000
vt 0.007813 0.140625
vt 0.007813 0.031250
vt 0.984375 0.984375
vt 0.906250 0.984375
vt 0.984375 0.625000
vt 0.906250 0.625000
vt 0.054688 0.234375
vt 0.101563 0.171875
vt 0.875000 0.796875
vt 0.007813 0.734375
vt 0.007813 0.234375
vt 0.703125 0.375000
vt 0.359375 0.531250
vt 0.835938 0.125000
vt 0.382813 0.359375
vt 0.984375 0.593750
vt 0.000000 0.015625
vt 0.000000 0.015625
vt 0.000000 0.015625
vt 0.000000 0.015625
vt 0.000000 0.015625
vt 0.000000 0.015625
vt 0.000000 0.015625
vt 0.000000 0.015625
vt 0.000000 0.015625
vt 0.000000 0.015625
vt 0.000000 0.015625
vt 0.000000 0.015625
vt 0.000000 0.015625
vt 0.000000 0.015625
vt 0.000000 0.015625
vt 0.000000 0.015625
vt 0.000000 0.015625
vt 0.000000 0.015625
vt 0.000000 0.015625
vt 0.000000 0.015625
vt 0.000000 0.015625
vt 0.000000 0.015625
vt 0.000000 0.015625
vt 0.000000 0.015625
vt 0.000000 0.015625
vt 0.000000 0.015625
vt 0.000000 0.015625
vt 0.000000 0.015625
vt 0.000000 0.015625
vt 0.000000 0.015625
vt 0.000000 0.015625
vt 0.000000 0.015625
vt 0.000000 0.015625
vt 0.000000 0.015625
vt 0.000000 0.015625
vt 0.000000 0.015625
vt 0.000000 0.015625
vt 0.000000 0.015625
vt 0.000000 0.015625
vt 0.000000 0.015625
vt 0.000000 0.015625
vt 0.000000 0.015625
vt 0.000000 0.015625
vt 0.000000 0.015625
vt 0.000000 0.015625
vt 0.000000 0.015625
vt 0.000000 0.015625
vt 0.000000 0.015625
vt 0.000000 0.015625
vt 0.000000 0.015625
vt 0.000000 0.015625
vt 0.000000 0.015625
vt 0.500000 0.234375
vt 0.695313 0.781250
vt 0.500000 0.781250
vt 0.500000 0.984375
vt 0.695313 0.984375
vt 0.500000 0.781250
vt 0.695313 0.781250
vt 0.500000 0.234375
vt 0.695313 0.234375
vt 0.500000 0.031250
vt 0.695313 0.031250
vt 0.695313 0.234375
vt 0.765625 0.062500
vt 0.765625 0.953125
vt 0.843750 0.234375
vt 0.843750 0.781250
vt 0.335938 0.765625
vt 0.335938 0.531250
vt 0.359375 0.890625
vt 0.414063 0.937500
vt 0.492188 0.531250
vt 0.492188 0.765625
vt 0.492188 0.531250
vt 0.492188 0.765625
vt 0.414063 0.937500
vt 0.179688 0.921875
vt 0.179688 0.984375
vt 0.140625 0.921875
vt 0.132813 0.984375
vt 0.179688 0.921875
vt 0.132813 0.921875
vt 0.125000 0.125000
vt 0.195313 0.125000
vt 0.195313 0.031250
vt 0.132813 0.031250
vt 0.195313 0.125000
vt 0.132813 0.125000
vt 0.335938 0.187500
vt 0.210938 0.187500
vt 0.210938 0.531250
vt 0.210938 0.765625
vt 0.210938 0.890625
vt 0.898438 0.031250
vt 0.859375 0.984375
vt 0.859375 0.031250
vt 0.898438 0.984375
vt 0.984375 0.984375
vt 0.984375 0.031250
vt 0.843750 0.234375
vt 0.765625 0.062500
vt 0.843750 0.781250
vt 0.765625 0.953125
vt 0.695313 0.234375
vt 0.695313 0.781250
vt 0.289063 0.156250
vt 0.289063 0.046875
vt 0.289063 0.156250
vt 0.257813 0.156250
vt 0.257813 0.046875
vt 0.257813 0.046875
vt 0.257813 0.156250
vt 0.289063 0.046875
vt 0.414063 0.031250
vt 0.390625 0.375000
vt 0.390625 0.031250
vt 0.414063 0.375000
vt 0.460938 0.375000
vt 0.460938 0.031250
vt 0.031250 0.921875
vt 0.062500 0.953125
vt 0.062500 0.046875
vt 0.117188 0.125000
vt 0.085938 0.921875
vt 0.335938 0.890625
vt 0.210938 0.984375
vt 0.335938 0.984375
vt 0.085938 0.921875
vt 0.062500 0.953125
vt 0.062500 0.046875
vt 0.007813 0.125000
vt 0.031250 0.921875
vt 0.335938 0.531250
vt 0.359375 0.890625
vt 0.335938 0.765625
vt 0.414063 0.375000
vt 0.460938 0.375000
vt 0.414063 0.031250
vt 0.460938 0.031250
vt 0.984375 0.031250
vt 0.898438 0.031250
vt 0.984375 0.984375
vt 0.898438 0.984375
vt 0.898438 0.031250
vt 0.859375 0.031250
vt 0.898438 0.984375
vt 0.859375 0.984375
vt 0.390625 0.375000
vt 0.414063 0.375000
vt 0.390625 0.031250
vt 0.414063 0.031250
vt 0.390625 0.500000
vt 0.445313 0.500000
vt 0.390625 0.421875
vt 0.445313 0.421875
vt 0.390625 0.500000
vt 0.390625 0.421875
vt 0.445313 0.500000
vt 0.445313 0.421875
vt 0.007813 0.125000
vt 0.117188 0.125000
vn 0.5841 -0.4722 0.6602
vn -0.0233 -0.6851 0.7281
vn 0.3111 -0.8829 0.3516
vn 0.2102 -0.1448 0.9669
vn 0.6616 0.0541 0.7479
vn 0.9341 -0.1448 0.3265
vn 0.7256 -0.6850 0.0658
vn -0.0000 0.0000 1.0000
vn 0.2803 -0.0017 0.9599
vn 0.4653 0.0030 0.8851
vn 0.6574 -0.0001 0.7535
vn 0.6577 -0.0000 0.7533
vn 0.0000 0.7128 0.7013
vn 0.0000 -0.9215 0.3885
vn -0.6667 -0.6667 0.3333
vn 0.6667 -0.3333 0.6667
vn -0.4472 0.0000 0.8944
vn 0.7071 0.0000 0.7071
vn 0.6337 -0.2924 0.7162
vn -1.0000 0.0000 0.0000
vn 1.0000 0.0000 0.0000
vn -0.2360 -0.9717 0.0000
vn -0.8427 -0.5384 -0.0000
vn -0.4720 -0.8816 -0.0000
vn -0.9631 -0.2693 0.0002
vn -1.0000 -0.0002 0.0009
vn -0.9322 -0.3117 -0.1838
vn -0.5855 -0.8107 0.0002
vn -0.7208 -0.6900 -0.0665
vn -0.6468 -0.7627 0.0000
vn -0.9916 -0.1291 0.0000
vn 0.7071 0.7071 0.0028
vn 0.8944 -0.4472 0.0009
vn 0.7070 0.7072 0.0026
vn 0.4472 -0.8944 0.0000
vn 0.2610 -0.9653 0.0000
vn 0.5221 -0.8529 0.0000
vn 0.9292 -0.3696 0.0000
vn 0.9292 -0.3697 0.0000
vn 0.7071 -0.7071 0.0000
vn -0.9790 0.0654 -0.1933
vn -0.6401 0.7637 -0.0836
vn -0.6257 0.7392 -0.2490
vn -0.7718 0.6359 -0.0000
vn 0.8089 -0.0000 0.5880
vn 0.2734 0.4653 0.8419
vn 0.3089 0.0000 0.9511
vn -0.2048 0.0000 0.9788
vn -0.3868 0.3290 0.8615
vn -0.8092 -0.0000 0.5875
vn -0.4332 0.8446 0.3147
vn -0.6725 0.7071 0.2185
vn 0.3927 0.9197 -0.0000
vn 0.9280 0.3726 -0.0000
vn 0.3928 0.9196 0.0000
vn 0.9692 0.2461 -0.0000
vn 0.9521 -0.3059 -0.0015
vn 0.9783 -0.2072 -0.0000
vn 0.7634 -0.6460 -0.0007
vn -0.7071 -0.7071 0.0000
vn -0.4253 -0.8944 0.1382
vn -0.5998 -0.7226 0.3437
vn -0.9511 -0.0000 0.3089
vn -0.7410 0.0000 0.6715
vn -0.2989 -0.2542 0.9198
vn -0.3096 0.0000 0.9509
vn 0.9510 0.0000 0.3091
vn 0.8676 0.0000 0.4972
vn 0.8509 -0.4472 0.2756
vn 0.5123 -0.7226 0.4641
vn 0.2130 -0.7246 0.6554
vn 0.4332 0.8446 0.3147
vn 0.8507 0.4472 0.2763
vn 0.0000 -1.0000 0.0000
vn 0.3557 -0.9346 -0.0006
vn 0.0014 1.0000 0.0081
vn 0.0014 1.0000 0.0082
vn -0.1041 0.9946 0.0000
vn -0.9511 -0.0000 0.3088
vn -0.8676 0.0000 0.4973
vn -0.4096 0.0000 0.9123
vn 0.2048 0.0000 0.9788
vn 0.4096 0.0000 0.9123
vn 0.7410 0.0000 0.6715
vn 0.8676 0.0000 0.4973
vn 0.9508 0.0000 0.3098
vn -0.9487 0.0002 0.3162
vn -0.3162 -0.0001 -0.9487
vn -0.8660 -0.4082 -0.2887
vn 0.2357 -0.6667 -0.7071
vn 0.9487 -0.0005 -0.3162
vn 0.8660 -0.4082 0.2887
vn 0.3162 -0.0001 0.9487
vn -0.2357 -0.6667 0.7071
vn -0.5773 -0.5773 -0.5774
vn 0.6667 0.3333 -0.6667
vn 0.5774 -0.5773 -0.5774
vn 0.5774 -0.5774 0.5773
vn 0.4082 0.8165 0.4082
vn -0.6667 0.3333 0.6667
vn -0.4082 0.8165 -0.4082
vn 0.0000 1.0000 0.0000
vn -0.7071 -0.0000 -0.7071
vn 0.7071 0.0000 -0.7071
vn -0.7071 -0.0000 0.7071
vn -0.9086 -0.0399 -0.4158
vn -0.0090 -0.2106 0.9775
vn 0.0000 -0.0506 0.9987
vn 0.9086 -0.0399 -0.4158
vn -0.5774 -0.5774 0.5773
vn -0.4759 -0.3363 0.8126
vn 0.4763 0.3374 0.8120
vn -0.4763 0.3381 0.8117
vn -0.8008 0.5686 0.1880
vn 0.8008 0.5686 -0.1880
vn -0.5818 0.4131 -0.7006
vn 0.3368 0.2391 -0.9107
vn -0.3365 -0.2378 -0.9111
vn 0.5815 -0.4109 -0.7021
vn -0.8019 -0.5667 -0.1891
vn 0.8019 -0.5667 0.1891
vn 0.4759 -0.3357 0.8129
vn 0.2471 0.1914 0.9499
vn 0.8018 -0.5345 0.2673
vn 0.5857 0.6674 0.4600
vn 0.7533 0.6027 -0.2632
vn 0.8165 -0.4082 -0.4082
vn 0.3381 0.2459 -0.9084
vn -0.5774 -0.5774 -0.5774
vn -0.3381 0.4918 -0.8024
vn -0.7533 0.6576 -0.0095
vn 0.4172 0.7757 -0.4734
vn -0.2156 0.6050 -0.7665
vn 0.4129 0.7753 0.4779
vn -0.4727 0.4348 0.7665
vn -0.8750 -0.0771 -0.4779
vn -0.8771 -0.0810 0.4734
vn -0.4615 -0.7346 0.4973
vn -0.4562 -0.7350 -0.5017
vn 0.2056 -0.5948 -0.7771
vn 0.4672 -0.4217 0.7771
vn 0.8566 0.1377 -0.4973
vn 0.8548 0.1327 0.5017
vn -0.8018 -0.2673 0.5345
vn -0.4544 0.1759 0.8733
vn -0.5857 0.5038 0.6350
vn -0.8944 0.0002 -0.4472
vn -0.4472 -0.0000 -0.8944
vn 0.5774 -0.5774 0.5774
vn -0.5773 -0.5774 0.5774
vn -0.8944 0.0001 -0.4472
vn -0.4472 -0.0001 -0.8944
vn 0.4472 -0.0001 -0.8944
vn 0.8944 -0.0001 -0.4472
vn 0.8944 -0.0002 -0.4472
vn 0.4472 0.0000 -0.8944
usemtl on.bmp
s 1
f 65/131/35 66/132/36 67/133/37
f 65/131/35 68/134/38 66/132/36
f 65/131/35 69/135/39 68/134/38
f 65/131/35 70/136/40 69/135/39
f 65/131/35 71/137/41 70/136/40
f 65/131/35 67/133/37 71/137/41
f 72/138/42 73/139/42 74/140/42
f 72/138/42 75/141/42 73/139/42
f 72/138/42 76/142/42 75/141/42
f 72/138/42 77/143/42 76/142/42
f 72/138/42 78/144/43 77/143/42
f 72/138/42 79/145/44 78/144/43
f 80/146/45 81/147/46 79/145/44
f 79/145/44 81/147/46 78/144/43
f 81/147/46 82/148/45 78/144/43
f 83/149/47 84/150/47 85/151/47
f 85/151/47 84/150/47 86/152/47
f 77/153/48 84/150/48 76/154/48
f 76/154/48 84/150/48 83/149/48
f 87/155/49 88/156/50 86/152/51
f 86/152/51 88/156/50 85/151/52
f 69/135/39 70/136/40 89/157/53
f 76/158/54 83/159/54 90/160/54
f 91/161/42 77/143/42 78/144/43
f 68/134/38 69/135/39 92/162/53
f 77/153/55 93/163/55 84/150/55
usemtl bod.bmp
f 94/164/42 91/165/42 95/166/42
f 95/166/42 91/165/42 96/167/42
f 91/165/42 97/168/42 96/167/42
f 96/167/42 97/168/42 98/169/42
f 97/168/42 99/170/42 98/169/42
f 98/169/42 99/170/42 100/171/42
f 99/170/42 101/172/42 100/171/42
f 100/171/42 101/172/42 102/173/42
f 101/172/42 103/174/42 102/173/42
f 102/173/42 103/174/42 104/175/42
f 103/174/42 105/176/42 104/175/42
f 99/177/56 97/168/57 106/178/58
f 106/178/58 97/168/57 107/179/59
f 97/168/57 91/165/60 107/179/59
f 107/179/59 91/165/60 108/180/61
f 91/165/60 78/181/62 108/180/61
f 108/180/61 78/181/62 109/182/63
f 78/181/62 82/183/64 109/182/63
f 109/182/63 82/183/64 81/184/65
f 110/185/66 111/186/67 101/187/68
f 101/187/68 111/186/67 103/188/69
f 111/186/67 112/189/70 103/188/69
f 103/188/69 112/189/70 113/190/71
f 112/189/70 114/191/72 113/190/71
f 113/190/71 114/191/72 115/192/73
f 114/191/72 75/193/74 115/192/73
f 116/194/75 117/195/76 118/196/77
f 116/194/75 80/197/78 117/195/76
f 116/194/75 81/184/65 80/197/78
f 116/194/75 109/182/63 81/184/65
f 116/194/75 108/180/61 109/182/63
f 116/194/75 118/196/77 108/180/61
f 119/198/79 120/199/80 121/200/81
f 121/200/81 120/199/80 122/201/82
f 120/199/80 123/202/83 122/201/82
f 122/201/82 123/202/83 124/203/84
f 123/202/83 125/204/85 124/203/84
f 124/203/84 125/204/85 94/205/86
f 72/206/87 74/207/88 126/208/89
f 126/208/89 74/207/88 127/209/90
f 74/207/88 128/210/55 127/209/90
f 127/209/90 128/210/55 129/211/91
f 128/210/55 130/212/92 129/211/91
f 129/211/91 130/212/92 131/213/93
f 93/214/42 103/174/42 90/215/42
f 93/214/42 105/176/42 103/174/42
f 93/214/42 94/164/42 105/176/42
f 93/214/42 91/165/42 94/164/42
f 93/214/42 77/216/42 91/165/42
f 85/217/52 88/218/50 83/219/55
f 83/219/55 88/218/50 90/220/69
f 88/218/50 87/221/49 90/220/69
f 90/220/69 87/221/49 93/222/94
f 87/221/49 84/223/54 93/222/94
f 98/224/95 132/225/96 96/226/97
f 96/226/97 132/225/96 133/227/98
f 132/225/96 134/228/99 133/227/98
f 133/227/98 134/228/99 135/229/100
f 134/228/99 136/230/81 135/229/100
f 102/231/101 137/232/102 100/233/103
f 100/233/103 137/232/102 138/234/104
f 137/232/102 136/230/81 138/234/104
f 138/234/104 136/230/81 139/235/105
f 136/230/81 134/228/99 139/235/105
f 100/236/103 138/237/104 98/238/95
f 98/238/95 138/237/104 132/239/96
f 138/237/104 139/240/105 132/239/96
f 132/239/96 139/240/105 134/241/99
f 128/242/42 114/243/42 130/244/42
f 130/244/42 114/243/42 110/245/42
f 114/243/42 112/246/42 110/245/42
f 110/245/42 112/246/42 111/247/42
f 90/215/42 75/248/42 76/249/42
f 90/215/42 115/250/42 75/248/42
f 90/215/42 113/251/42 115/250/42
f 90/215/42 103/174/42 113/251/42
f 94/252/86 125/253/85 140/254/106
f 140/254/106 125/253/85 120/255/80
f 125/253/85 123/256/83 120/255/80
f 120/199/80 119/198/79 140/257/106
f 140/257/106 119/198/79 105/258/107
f 119/198/79 104/259/101 105/258/107
f 73/260/108 75/193/74 128/261/108
f 128/261/108 75/193/74 141/262/74
f 75/193/74 114/191/72 141/262/74
f 129/211/91 131/213/93 142/263/109
f 142/263/109 131/213/93 143/264/109
f 131/265/110 130/266/111 101/187/68
f 101/187/68 130/266/111 110/185/66
f 118/267/77 79/268/112 126/269/89
f 126/269/89 79/268/112 72/270/87
f 99/170/42 143/271/42 101/172/42
f 101/172/42 143/271/42 131/272/42
f 80/197/78 79/273/112 117/195/76
f 117/195/76 79/273/112 118/196/77
f 106/274/58 142/275/109 99/170/56
f 99/170/56 142/275/109 143/271/109
f 73/276/55 128/210/55 74/207/88
f 94/252/86 140/254/106 105/277/107
f 84/223/54 87/221/49 86/278/51
f 95/279/97 124/203/84 94/205/86
f 141/280/42 114/243/42 128/242/42
usemtl health_chrome.bmp
f 104/281/113 144/282/114 102/283/113
f 102/283/113 144/282/114 145/284/98
f 144/282/114 146/285/115 145/284/98
f 145/284/98 146/285/115 147/286/82
f 146/285/115 148/287/116 147/286/82
f 147/286/82 148/287/116 149/288/117
f 148/287/116 150/289/118 149/288/117
f 149/288/117 150/289/118 151/290/119
f 150/289/118 95/291/120 151/290/119
f 151/290/119 95/291/120 96/292/120
f 152/293/121 153/294/122 154/295/123
f 154/295/123 153/294/122 155/296/124
f 153/294/122 156/297/125 155/296/124
f 155/296/124 156/297/125 157/298/126
f 156/297/125 158/299/127 157/298/126
f 157/298/126 158/299/127 159/300/128
f 158/299/127 152/293/121 159/300/128
f 159/300/128 152/293/121 154/295/123
f 160/301/129 161/302/130 162/303/131
f 162/303/131 161/302/130 163/304/132
f 161/302/130 164/305/133 163/304/132
f 163/304/132 164/305/133 165/306/134
f 164/305/133 166/307/135 165/306/134
f 165/306/134 166/307/135 160/301/129
f 166/307/135 161/302/130 160/301/129
f 95/291/108 122/308/108 124/309/108
f 95/291/108 121/310/108 122/308/108
f 95/291/108 119/311/108 121/310/108
f 95/291/108 104/281/108 119/311/108
f 95/291/108 144/282/108 104/281/108
f 95/291/108 150/289/108 144/282/108
f 133/312/136 151/290/136 96/292/136
f 133/312/136 149/288/136 151/290/136
f 133/312/136 147/286/136 149/288/136
f 133/312/136 137/313/136 147/286/136
f 133/312/136 136/314/136 137/313/136
f 133/312/136 135/315/136 136/314/136
f 167/316/137 168/317/138 169/318/138
f 169/318/138 168/317/138 170/319/52
f 168/317/138 171/320/52 170/319/52
f 170/319/52 171/320/52 172/321/139
f 170/319/52 172/321/139 173/322/139
f 173/322/139 172/321/139 167/316/137
f 172/321/139 174/323/137 167/316/137
f 167/316/137 174/323/137 168/317/138
f 175/324/140 176/325/141 177/326/142
f 177/326/142 176/325/141 178/327/143
f 176/325/141 175/324/140 178/327/143
f 162/303/131 163/304/132 160/301/129
f 160/301/129 163/304/132 179/328/144
f 154/295/123 155/296/124 159/300/128
f 159/300/128 155/296/124 157/298/126
f 146/285/108 144/282/108 148/287/108
f 148/287/108 144/282/108 150/289/108
f 147/286/136 137/313/136 145/284/136
f 145/284/136 137/313/136 102/283/136
f 180/329/42 181/330/42 182/331/42
f 182/331/42 181/330/42 183/332/42
f 163/304/132 165/306/134 179/328/144
f 179/328/144 165/306/134 160/301/129
f 166/307/135 164/305/133 161/302/130
usemtl arm.bmp
f 184/333/145 185/334/146 186/335/147
f 186/335/147 185/334/146 187/336/148
f 185/334/146 188/337/149 187/336/148
f 187/336/148 188/337/149 189/338/150
f 188/337/149 190/339/151 189/338/150
f 189/338/150 190/339/151 191/340/152
f 190/339/151 192/341/153 191/340/152
f 191/340/152 192/341/153 193/342/154
f 192/341/153 194/343/155 193/342/154
f 193/342/154 194/343/155 184/333/145
f 194/343/155 195/344/156 184/333/145
f 184/333/145 195/344/156 185/334/146
f 195/344/156 194/345/155 185/334/146
f 185/334/146 194/345/155 188/346/149
f 194/345/155 192/347/153 188/346/149
f 188/346/149 192/347/153 190/348/151
f 196/349/157 197/350/158 198/351/159
f 198/351/159 197/350/158 199/352/160
f 197/350/158 200/353/161 199/352/160
f 199/352/160 200/353/161 201/354/162
f 200/353/161 202/355/163 201/354/162
f 201/354/162 202/355/163 203/356/164
f 202/355/163 204/357/165 203/356/164
f 203/356/164 204/357/165 199/352/160
f 205/358/166 206/359/167 207/360/168
f 207/360/168 206/359/167 208/361/169
f 206/359/167 209/362/170 208/361/169
f 208/361/169 209/362/170 210/363/171
f 209/362/170 211/364/172 210/363/171
f 212/365/173 213/366/174 211/364/172
f 211/364/172 213/366/174 214/367/175
f 213/366/174 215/368/176 214/367/175
f 214/367/175 215/368/176 216/369/177
f 215/368/176 207/360/168 216/369/177
f 200/370/161 197/350/158 202/371/163
f 202/371/163 197/350/158 217/372/178
f 197/350/158 196/349/157 217/372/178
f 217/372/178 196/349/157 218/373/179
f 196/349/157 219/374/180 218/373/179
f 220/375/139 221/376/181 222/377/182
f 220/375/139 223/378/139 221/376/181
f 220/375/139 224/379/52 223/378/139
f 220/375/139 225/380/52 224/379/52
f 191/381/152 193/382/154 189/383/150
f 189/383/150 193/382/154 187/384/148
f 193/382/154 184/385/145 187/384/148
f 187/384/148 184/385/145 186/386/147
f 226/387/134 227/388/183 228/389/133
f 228/389/133 227/388/183 229/390/130
f 227/388/183 230/391/131 229/390/130
f 229/390/130 230/391/131 231/392/163
f 229/390/130 231/392/163 232/393/135
f 232/393/135 231/392/163 226/387/134
f 231/392/163 233/394/184 226/387/134
f 226/387/134 233/394/184 227/388/183
f 234/395/139 235/396/185 236/397/186
f 234/395/139 237/398/139 235/396/185
f 234/395/139 238/399/52 237/398/139
f 234/395/139 239/400/52 238/399/52
f 209/401/170 206/402/167 213/403/174
f 213/403/174 206/402/167 215/404/176
f 206/402/167 205/405/166 215/404/176
f 196/349/157 198/406/159 219/374/180
f 219/374/180 198/406/159 204/407/165
f 198/406/159 199/408/160 204/407/165
f 207/409/168 208/410/169 214/411/175
f 214/411/175 208/410/169 211/412/172
f 208/410/169 210/413/171 211/412/172
f 202/355/163 217/414/178 204/357/165
f 204/357/165 217/414/178 219/415/180
f 217/414/178 218/416/179 219/415/180
f 235/417/185 240/418/187 236/419/186
f 236/419/186 240/418/187 241/420/188
f 242/421/189 222/422/182 243/423/190
f 243/423/190 222/422/182 221/424/181
f 225/425/52 242/426/189 224/427/52
f 224/427/52 242/426/189 243/428/190
f 240/429/187 238/430/52 241/431/188
f 241/431/188 238/430/52 239/432/52
f 233/433/184 231/434/163 227/435/183
f 227/435/183 231/434/163 230/436/131
f 226/437/134 228/438/133 232/439/135
f 232/439/135 228/438/133 229/440/130
f 201/354/162 203/356/164 199/352/160
f 212/441/173 209/401/170 213/403/174
f 207/409/168 214/411/175 216/442/177
f 207/360/168 215/368/176 205/358/166
f 211/364/172 209/362/170 212/365/173
